Coordinates
version=1
nRows=13
nColumns=63
inDegrees=yes

Units are S.I. units (second, meters, Newtons, ...)
If the header above contains a line with 'inDegrees', this indicates whether rotational values are in degrees (yes) or radians (no).

endheader
time	pelvis_tilt	pelvis_list	pelvis_rotation	pelvis_tx	pelvis_ty	pelvis_tz	hip_flexion_r	hip_adduction_r	hip_rotation_r	knee_angle_r	knee_angle_r_beta	ankle_angle_r	subtalar_angle_r	mtp_angle_r	hip_flexion_l	hip_adduction_l	hip_rotation_l	knee_angle_l	knee_angle_l_beta	ankle_angle_l	subtalar_angle_l	mtp_angle_l	L5_S1_Flex_Ext	L5_S1_Lat_Bending	L5_S1_axial_rotation	L4_L5_Flex_Ext	L4_L5_Lat_Bending	L4_L5_axial_rotation	L3_L4_Flex_Ext	L3_L4_Lat_Bending	L3_L4_axial_rotation	L2_L3_Flex_Ext	L2_L3_Lat_Bending	L2_L3_axial_rotation	L1_L2_Flex_Ext	L1_L2_Lat_Bending	L1_L2_axial_rotation	L1_T12_Flex_Ext	L1_T12_Lat_Bending	L1_T12_axial_rotation	Abs_r3	Abs_r2	Abs_r1	Abs_t1	Abs_t2	neck_flexion	neck_bending	neck_rotation	arm_flex_r	arm_add_r	arm_rot_r	elbow_flex_r	pro_sup_r	wrist_flex_r	wrist_dev_r	arm_flex_l	arm_add_l	arm_rot_l	elbow_flex_l	pro_sup_l	wrist_flex_l	wrist_dev_l
0.000000	-1.709956	-5.030030	89.564460	0.045084	0.864087	0.708097	6.361445	-4.733408	-1.182270	13.885836	0.242354	31.235218	8.529280	0.000000	3.087561	3.556649	3.880242	6.204730	0.108293	27.884969	-11.665663	0.000000	-0.007491	-0.117715	1.819209	-0.013911	-0.156561	1.932910	-0.012307	-0.286213	1.932910	-0.008561	-0.286213	1.591808	-0.006956	-0.240045	1.478108	-0.004280	-0.182341	1.364407	-0.053507	-1.331618	10.117896	0.000000	0.000000	23.162447	-3.411149	-0.332099	9.962739	-6.479795	54.291886	39.945754	35.966835	12.790870	13.010746	17.349407	-10.806612	59.304071	46.252597	84.204147	14.020598	-9.616822
0.016667	-1.651290	-5.158698	88.981091	0.045907	0.864313	0.709605	6.559580	-4.663392	-1.725991	13.469521	0.235087	31.384321	9.771210	0.000000	3.317145	3.460562	2.963110	6.333471	0.110540	28.026579	-11.046658	0.000000	-0.004613	-0.111044	1.853577	-0.008567	-0.147689	1.969426	-0.007579	-0.269993	1.969426	-0.005272	-0.269993	1.621880	-0.004284	-0.226441	1.506031	-0.002636	-0.172008	1.390183	-0.032951	-1.256155	10.309039	0.000000	0.000000	23.095413	-3.805240	-0.962145	10.475636	-6.466466	54.748769	39.494771	40.773213	13.304618	11.958818	17.192141	-10.745742	58.564229	46.046974	84.143571	13.765030	-9.198006
0.033333	-1.598149	-5.252894	88.567067	0.046530	0.864518	0.710706	6.661759	-4.596801	-2.150851	13.076647	0.228231	31.494193	10.694704	0.000000	3.481432	3.381340	2.302335	6.438210	0.112368	28.143639	-10.571609	0.000000	-0.000712	-0.106043	1.879547	-0.001323	-0.141038	1.997018	-0.001170	-0.257834	1.997018	-0.000814	-0.257834	1.644603	-0.000661	-0.216244	1.527132	-0.000407	-0.164261	1.409660	-0.005087	-1.199585	10.453475	0.000000	0.000000	23.022413	-4.083537	-1.468061	10.842447	-6.454628	55.033013	39.146061	44.558150	13.682286	11.144926	17.093997	-10.680502	58.073162	45.840783	84.099243	13.550786	-8.889873
0.050000	-1.550032	-5.315854	88.306031	0.046970	0.864705	0.711439	6.679009	-4.533669	-2.469340	12.708590	0.221807	31.569009	11.331404	0.000000	3.586811	3.317423	1.874243	6.521002	0.113813	28.237924	-10.228704	0.000000	0.004044	-0.102515	1.897852	0.007511	-0.136345	2.016468	0.006644	-0.249255	2.016468	0.004622	-0.249255	1.660621	0.003755	-0.209049	1.542005	0.002311	-0.158796	1.423389	0.028888	-1.159670	10.555286	0.000000	0.000000	22.944361	-4.258985	-1.862664	11.077418	-6.444530	55.158954	38.890684	47.433716	13.938102	10.543166	17.051948	-10.610957	57.813643	45.632652	84.066593	13.373914	-8.685792
0.066667	-1.506440	-5.350815	88.181626	0.047245	0.864877	0.711843	6.622355	-4.474032	-2.693949	12.366728	0.215840	31.612946	11.712949	0.000000	3.639669	3.267253	1.655161	6.583899	0.114911	28.311209	-10.006133	0.000000	0.009488	-0.100261	1.909229	0.017620	-0.133347	2.028556	0.015588	-0.243775	2.028556	0.010844	-0.243775	1.670575	0.008811	-0.204453	1.551248	0.005421	-0.155305	1.431922	0.067772	-1.134174	10.618557	0.000000	0.000000	22.862169	-4.344526	-2.158775	11.194795	-6.436420	55.140931	38.719699	49.511986	14.086293	10.127632	17.062966	-10.537172	57.768447	45.421210	84.041051	13.230461	-8.579129
0.083333	-1.466871	-5.361014	88.177492	0.047373	0.865034	0.711958	6.502823	-4.417924	-2.837170	12.052437	0.210355	31.630182	11.870980	0.000000	3.646395	3.229273	1.621416	6.628955	0.115697	28.365272	-9.892085	0.000000	0.015451	-0.099084	1.914410	0.028695	-0.131782	2.034060	0.025385	-0.240913	2.034060	0.017659	-0.240913	1.675108	0.014348	-0.202053	1.555458	0.008829	-0.153481	1.435807	0.110367	-1.120860	10.647372	0.000000	0.000000	22.776750	-4.353104	-2.369210	11.208826	-6.430545	54.993282	38.624168	50.905031	14.141089	9.872420	17.124024	-10.459213	57.920350	45.205087	84.018047	13.116476	-8.563251
0.100000	-1.430826	-5.349686	88.277273	0.047372	0.865180	0.711824	6.331442	-4.365379	-2.911491	11.767095	0.205375	31.624892	11.837139	0.000000	3.613377	3.201925	1.749335	6.658223	0.116208	28.401887	-9.874749	0.000000	0.021766	-0.098786	1.914130	0.040422	-0.131386	2.033763	0.035760	-0.240189	2.033763	0.024877	-0.240189	1.674863	0.020212	-0.201445	1.555230	0.012437	-0.153020	1.435597	0.155473	-1.117491	10.645814	0.000000	0.000000	22.689017	-4.297662	-2.506789	11.133757	-6.427155	54.730343	38.595150	51.724924	14.116717	9.751624	17.232093	-10.377145	58.252124	44.982911	83.993011	13.028005	-8.631525
0.116667	-1.397804	-5.320068	88.464611	0.047258	0.865318	0.711479	6.119236	-4.316432	-2.929404	11.512078	0.200924	31.601254	11.643066	0.000000	3.547003	3.183649	2.015246	6.673756	0.116479	28.422831	-9.942315	0.000000	0.028265	-0.099170	1.909123	0.052490	-0.131896	2.028443	0.046436	-0.241121	2.028443	0.032304	-0.241121	1.670482	0.026247	-0.202227	1.551162	0.016150	-0.153614	1.431842	0.201891	-1.121829	10.617967	0.000000	0.000000	22.599883	-4.191144	-2.584330	10.983834	-6.426497	54.366452	38.623706	52.083738	14.027405	9.739340	17.384147	-10.291034	58.746545	44.753312	83.961372	12.961096	-8.777318
0.133333	-1.367304	-5.275397	88.723148	0.047050	0.865449	0.710964	5.877233	-4.271118	-2.903399	11.288763	0.197026	31.563444	11.320402	0.000000	3.453662	3.172888	2.395474	6.677609	0.116546	28.429879	-10.082971	0.000000	0.034779	-0.100037	1.900123	0.064588	-0.133049	2.018881	0.057138	-0.243230	2.018881	0.039749	-0.243230	1.662608	0.032296	-0.203995	1.543850	0.019873	-0.154957	1.425092	0.248422	-1.131637	10.567915	0.000000	0.000000	22.510261	-4.046492	-2.614652	10.773303	-6.428819	53.915947	38.700895	52.093546	13.887380	9.809664	17.577156	-10.200944	59.386387	44.514919	83.918561	12.911798	-8.993997
0.150000	-1.338827	-5.218909	89.036526	0.046765	0.865576	0.710318	5.616459	-4.229471	-2.845967	11.098527	0.193706	31.515639	10.900788	0.000000	3.339741	3.168085	2.866347	6.671833	0.116445	28.424809	-10.284907	0.000000	0.041141	-0.101190	1.887865	0.076403	-0.134582	2.005857	0.067590	-0.246033	2.005857	0.047020	-0.246033	1.651882	0.038203	-0.206346	1.533891	0.023508	-0.156743	1.415899	0.293865	-1.144680	10.499742	0.000000	0.000000	22.421063	-3.876651	-2.610573	10.516412	-6.434370	53.393165	38.817778	51.866419	13.710871	9.936690	17.808094	-10.106940	60.154425	44.266361	83.860007	12.876158	-9.274930
0.166667	-1.311871	-5.153840	89.388388	0.046421	0.865700	0.709581	5.347940	-4.191525	-2.769598	10.942747	0.190987	31.462015	10.415864	0.000000	3.211630	3.167680	3.404192	6.658483	0.116212	28.409394	-10.536311	0.000000	0.047183	-0.102431	1.873084	0.087623	-0.136233	1.990152	0.077517	-0.249050	1.990152	0.053925	-0.249050	1.638948	0.043814	-0.208877	1.521881	0.026960	-0.158665	1.404813	0.337022	-1.158718	10.417530	0.000000	0.000000	22.333203	-3.694564	-2.584912	10.227407	-6.443398	52.812445	38.965416	51.514430	13.512106	10.094513	18.073933	-10.009089	61.033432	44.006266	83.781140	12.850223	-9.613484
0.183333	-1.272370	-5.066376	89.741028	0.046030	0.865851	0.708854	5.075964	-4.136544	-2.620753	10.830133	0.189021	31.381337	9.835267	0.000000	3.059977	3.154993	3.940736	6.639262	0.115877	28.380567	-10.779561	0.000000	0.049959	-0.099518	1.844628	0.092779	-0.132359	1.959918	0.082078	-0.241968	1.959918	0.057098	-0.241968	1.614050	0.046392	-0.202937	1.498761	0.028547	-0.154153	1.383471	0.356854	-1.125766	10.259269	0.000000	0.000000	22.233068	-3.498889	-2.364396	10.000768	-6.444245	52.313138	39.067430	51.549788	13.363390	10.074001	18.362216	-9.915047	62.007202	43.730036	83.603107	12.807163	-10.024991
0.200000	-1.241023	-5.000547	90.104797	0.045636	0.865995	0.708120	4.853741	-4.101897	-2.573349	10.766853	0.187917	31.339759	9.362190	0.000000	2.936259	3.151619	4.531850	6.621634	0.115569	28.342414	-11.096125	0.000000	0.054911	-0.099606	1.829391	0.101976	-0.132476	1.943728	0.090214	-0.242183	1.943728	0.062758	-0.242183	1.600717	0.050991	-0.203117	1.486380	0.031376	-0.154290	1.372043	0.392225	-1.126766	10.174523	0.000000	0.000000	22.142358	-3.368978	-2.402252	9.706484	-6.467841	51.650845	39.245531	51.676840	13.176187	10.093009	18.758148	-9.792619	63.213767	43.381881	83.580542	12.768223	-10.609649
